<svg width="500" height="500" xmlns="http://www.w3.org/2000/svg">

 <g>
  <title>background</title>
  <rect fill="none" id="canvas_background" height="402" width="582" y="-1" x="-1"/>
 </g>
 <g>
  <title>Layer 1</title>
  <rect id="svg_1" height="500" width="500" fill="#ffffff" fill-rule="evenodd"/>
  <g id="svg_2">
   <g id="svg_3">
    <g id="paper_clip_8_">
     <g id="svg_4">
      <path id="svg_5" d="m356.4,338.9l-0.2,-0.1c-3.9,-1.5 -6,-5.9 -4.5,-9.8l6.3,-17c0.2,-0.5 0.7,-0.7 1.1,-0.5c0.4,0.2 0.7,0.7 0.5,1.1l-6.3,17c-1.1,3.1 0.4,6.5 3.5,7.6l0.2,0.1c3,1.1 6.5,-0.4 7.6,-3.5l8.3,-22.3c0.9,-2.3 -0.3,-4.8 -2.6,-5.7c-2.3,-0.9 -4.8,0.3 -5.7,2.6l-6.5,17.3c-0.5,1.2 0.2,2.6 1.4,3.1l0.3,0.1c1.2,0.5 2.6,-0.2 3.1,-1.4l4.2,-11.3c0.2,-0.5 0.7,-0.7 1.1,-0.5c0.5,0.2 0.7,0.7 0.5,1.1l-4.2,11.3c-0.8,2.1 -3.2,3.2 -5.3,2.4l-0.3,-0.1c-2.1,-0.8 -3.2,-3.2 -2.4,-5.3l6.5,-17.3c1.2,-3.2 4.7,-4.8 7.9,-3.6c3.2,1.2 4.8,4.7 3.6,7.9l-8.3,22.3c-1.4,4 -5.8,6 -9.8,4.5z" fill="#FCB120"/>
     </g>
    </g>
    <g id="svg_6">
     <g id="svg_7">
      <rect id="svg_8" height="145.1" width="119.7" fill="#FCB120" transform="matrix(1,-0.001951843,0.001951843,1,-0.5587,0.4822) " y="213.9" x="186.9"/>
     </g>
    </g>
    <g id="svg_9">
     <g id="svg_10">
      <rect id="svg_11" height="145.1" width="119.7" fill="#FFFFFF" transform="matrix(1,-0.001951843,0.001951843,1,-0.5542,0.4783) " y="211.6" x="184.9"/>
     </g>
    </g>
    <g id="svg_12">
     <g id="svg_13">
      <g id="svg_14">
       <path id="svg_15" d="m180.1,391.9l-14.1,-9.7l-3.6,5.3c-0.6,0.9 -0.4,2.2 0.6,2.8l10.8,7.5c0.9,0.6 2.2,0.4 2.8,-0.6l3.5,-5.3z" fill="#FFFFFF"/>
      </g>
     </g>
     <g id="svg_16">
      <g id="svg_17">
       <polygon id="svg_18" points="216.4,335 210.7,334.5 207.6,329 204.3,328 166,382.2 180.1,391.9 218.3,337.7 " fill="#1E4C4C"/>
      </g>
     </g>
     <g id="svg_19">
      <g id="svg_20">
       <polygon id="svg_21" points="177.4,390.1 180.1,391.9 218.3,337.7 218.4,337.6 216.3,335 210.1,334.6 173.1,387 " fill="#1A7C7B"/>
      </g>
     </g>
     <g id="svg_22">
      <g id="svg_23">
       <polygon id="svg_24" points="222.2,318 215.3,320.9 221.6,325.2 "/>
      </g>
     </g>
    </g>
    <g id="svg_25">
     <g id="svg_26">
      <g id="svg_27">
       <path id="svg_28" d="m228.7,254.6l0.5,-20l26.1,0.6l-0.5,20l-26.1,-0.6zm2.3,-18.1l-0.4,16.2l22.3,0.5l0.4,-16.3l-22.3,-0.4z" fill="#1E4C4C"/>
      </g>
     </g>
     <g id="svg_29">
      <g id="svg_30">
       <path id="svg_31" d="m196.2,284.9l0.5,-20l26.1,0.6l-0.5,20l-26.1,-0.6zm2.4,-18.1l-0.4,16.3l22.3,0.5l0.4,-16.3l-22.3,-0.5z" fill="#1E4C4C"/>
      </g>
     </g>
     <g id="svg_32">
      <g id="svg_33">
       <path id="svg_34" d="m237.5,317.9l0.5,-20l26.1,0.6l-0.5,20l-26.1,-0.6zm2.3,-18.1l-0.4,16.3l22.3,0.5l0.4,-16.2l-22.3,-0.6z" fill="#1E4C4C"/>
      </g>
     </g>
     <g id="svg_35">
      <g id="svg_36">
       <path id="svg_37" d="m271.1,277.8l0.4,-16l20.7,0.5l-0.4,16l-20.7,-0.5zm2.2,-14.1l-0.3,12.2l16.9,0.4l0.3,-12.2l-16.9,-0.4z" fill="#1E4C4C"/>
      </g>
     </g>
     <g id="svg_38">
      <g id="svg_39">
       <g id="svg_40">
        <path id="svg_41" d="m207.2,257.3c2.2,-13.2 15.4,-14.9 15.9,-15l-0.2,-1.9c-0.1,0 -15.1,1.9 -17.6,16.5l1.9,0.4z" fill="#1E4C4C"/>
       </g>
      </g>
      <g id="svg_42">
       <g id="svg_43">
        <polygon id="svg_44" points="206,258.5 209.5,256.5 208.6,254.9 206.6,256 205.3,254 203.7,255 " fill="#1E4C4C"/>
       </g>
      </g>
     </g>
     <g id="svg_45">
      <g id="svg_46">
       <g id="svg_47">
        <path id="svg_48" d="m230.9,306.1l0.2,-1.9c-13.3,-1.5 -15.7,-14.6 -15.8,-15.1l-1.9,0.3c0.1,0.2 2.8,15.1 17.5,16.7z" fill="#1E4C4C"/>
       </g>
      </g>
      <g id="svg_49">
       <g id="svg_50">
        <polygon id="svg_51" points="229.1,307.8 232.4,305.4 230.3,302 228.7,303 229.9,304.9 228,306.3 " fill="#1E4C4C"/>
       </g>
      </g>
     </g>
     <g id="svg_52">
      <g id="svg_53">
       <g id="svg_54">
        <path id="svg_55" d="m270.7,304.8c0.1,0 14.5,-4.7 14.3,-19.5l-1.9,0c0.2,13.4 -12.8,17.6 -12.9,17.6l0.5,1.9z" fill="#1E4C4C"/>
       </g>
      </g>
      <g id="svg_56">
       <g id="svg_57">
        <polygon id="svg_58" points="285.6,288.2 286.9,286.9 284,283.9 281,286.5 282.2,287.9 283.9,286.5 " fill="#1E4C4C"/>
       </g>
      </g>
     </g>
     <g id="svg_59">
      <g id="svg_60">
       <g id="svg_61">
        <path id="svg_62" d="m283.5,257l1.7,-0.7c-0.1,-0.1 -6.1,-14 -20.8,-12.3l0.2,1.9c13.4,-1.6 18.7,10.6 18.9,11.1z" fill="#1E4C4C"/>
       </g>
      </g>
      <g id="svg_63">
       <g id="svg_64">
        <polygon id="svg_65" points="266,247.9 267.4,246.6 265.8,245 267.3,243.1 265.9,241.9 263.2,245.1 " fill="#1E4C4C"/>
       </g>
      </g>
     </g>
    </g>
    <g id="paper_clip_6_">
     <g id="svg_66">
      <path id="svg_67" d="m355.3,338.6l-0.2,-0.1c-3.9,-1.5 -6,-5.9 -4.5,-9.8l6.3,-17c0.2,-0.5 0.7,-0.7 1.1,-0.5c0.5,0.2 0.7,0.7 0.5,1.1l-6.3,17c-1.1,3.1 0.4,6.5 3.5,7.6l0.2,0.1c3,1.1 6.5,-0.4 7.6,-3.5l8.3,-22.3c0.9,-2.3 -0.3,-4.8 -2.6,-5.7c-2.3,-0.9 -4.8,0.3 -5.7,2.6l-6.5,17.3c-0.5,1.2 0.2,2.6 1.4,3.1l0.3,0.1c1.2,0.5 2.6,-0.2 3.1,-1.4l4.2,-11.3c0.2,-0.5 0.7,-0.7 1.1,-0.5c0.5,0.2 0.7,0.7 0.5,1.1l-4.2,11.3c-0.8,2.1 -3.2,3.2 -5.3,2.4l-0.3,-0.1c-2.1,-0.8 -3.2,-3.2 -2.4,-5.3l6.5,-17.3c1.2,-3.2 4.7,-4.8 7.9,-3.6c3.2,1.2 4.8,4.7 3.6,7.9l-8.3,22.3c-1.5,4 -5.9,6 -9.8,4.5z" fill="#FFFFFF"/>
     </g>
    </g>
   </g>
   <g id="svg_68">
    <rect id="svg_69" height="45.3" width="45.3" fill="#FFFFFF" transform="matrix(0.733,-0.6802,0.6802,0.733,-84.6346,132.815) " y="151.6" x="104.2"/>
   </g>
   <g id="svg_70">
    <rect id="svg_71" height="45.3" width="45.3" fill="#FFFFFF" transform="matrix(0.965,-0.2624,0.2624,0.965,-27.6744,67.1954) " y="114.6" x="215.1"/>
   </g>
   <g id="svg_72">
    <rect id="svg_73" height="48.3" width="48.3" fill="#FFFFFF" transform="matrix(0.8695,0.4939,-0.4939,0.8695,122.9711,-146.2506) " y="135.5" x="314.1"/>
   </g>
   <g id="svg_74">
    <path id="svg_75" d="m351.4,153.4l-0.6,-0.3c0.4,-3 -1.2,-5.2 -4.4,-6.9c-3.5,-1.9 -6.7,-0.7 -9.4,3.4c-1,-0.1 -2.2,0.8 -3,2.2c-0.9,1.6 -0.9,3.3 0,4c-0.5,1.7 -0.6,3.2 0,4.7l-1.7,3l2,6.2l4.5,-2.7l0.9,-1.6l0,0c3,1.6 5.4,-1 7.7,-4.7l0.9,0.5l3.1,-7.8z" fill="#FCC020"/>
   </g>
   <g id="svg_76">
    <rect id="svg_77" height="45.3" width="45.3" fill="#FFFFFF" y="236.8" x="360.6"/>
   </g>
   <g id="svg_78">
    <rect id="svg_79" height="45.3" width="45.3" fill="#FFFFFF" transform="matrix(0.9829,0.1842,-0.1842,0.9829,57.5145,-15.3518) " y="279.2" x="88.7"/>
   </g>
   <g id="svg_80">
    <path id="svg_81" d="m178.2,236.6l-7.2,-7.8l3.9,-3.6l7.2,7.8l-3.9,3.6zm-14.3,-15.7l-7.2,-7.8l3.9,-3.6l7.2,7.8l-3.9,3.6zm-14.3,-15.7l-5.9,-6.5l3.9,-3.6l5.9,6.5l-3.9,3.6z" fill="#5ab5ff"/>
   </g>
   <g id="svg_82">
    <path stroke-width="0" id="svg_83" d="m212.6,210.3l-4.7,-2.5l5,-9.4l4.7,2.5l-5,9.4zm9.9,-18.8l-4.7,-2.5l5,-9.4l4.7,2.5l-5,9.4zm10,-18.8l-4.7,-2.5l1.4,-2.7l4.7,2.5l-1.4,2.7z" fill="#5ab5ff"/>
   </g>
   <g id="svg_84">
    <path id="svg_85" d="m375.1,233.7l-3.7,-9.3l4.9,-1.9l3.7,9.3l-4.9,1.9zm-7.6,-19.2l-3.9,-9.9l4.9,-2l3.9,9.9l-4.9,2zm-7.8,-19.8l-3.9,-9.9l4.9,-1.9l3.9,9.9l-4.9,1.9z" fill="#5ab5ff"/>
   </g>
   <g id="svg_86">
    <path id="svg_87" d="m249.9,212l-2.3,-4.8l7.3,-3.6l2.3,4.8l-7.3,3.6zm16.8,-8.3l-2.3,-4.8l9.5,-4.7l2.3,4.8l-9.5,4.7zm19.1,-9.4l-2.3,-4.8l9.5,-4.7l2.3,4.8l-9.5,4.7zm19,-9.4l-2.3,-4.8l9.5,-4.7l2.3,4.8l-9.5,4.7z" fill="#5ab5ff"/>
   </g>
   <g id="svg_88">
    <path id="svg_89" d="m139.2,298.6l-1.8,-5l5,-1.8l1.8,5l-5,1.8zm15,-5.5l-1.8,-5l10,-3.7l1.8,5l-10,3.7zm20,-7.3l-1.8,-5l10,-3.7l1.8,5l-10,3.7z" fill="#5ab5ff"/>
   </g>
   <g id="svg_90">
    <path id="svg_91" d="m149.4,162.6l-1.3,-5.1l5.2,-1.3l1.3,5.1l-5.2,1.3zm15.5,-3.9l-1.3,-5.1l10.3,-2.6l1.3,5.1l-10.3,2.6zm20.6,-5.1l-1.3,-5.1l10.3,-2.6l1.3,5.1l-10.3,2.6zm20.6,-5.2l-1.3,-5.1l10.3,-2.6l1.3,5.1l-10.3,2.6z" fill="#5ab5ff"/>
   </g>
   <g id="svg_92">
    <path id="svg_93" d="m110.2,265.6l-5.3,0l0,-10.6l5.3,0l0,10.6zm0,-21.2l-5.3,0l0,-10.6l5.3,0l0,10.6zm0,-21.3l-5.3,0l0,-10.6l5.3,0l0,10.6zm0,-21.2l-5.3,0l0,-10.6l5.3,0l0,10.6z" fill="#5ab5ff"/>
   </g>
   <g id="svg_94">
    <path id="svg_95" d="m359.8,267.4l-10.6,0l0,-5.4l10.6,0l0,5.4zm-21.2,0l-10.6,0l0,-5.4l10.6,0l0,5.4zm-21.3,0l-6.3,0l0,-5.4l6.3,0l0,5.4z" fill="#5ab5ff"/>
   </g>
   <g id="svg_96">
    <path id="svg_97" d="m314,150.5l-7.5,-1.9l1.3,-5.1l7.5,1.9l-1.3,5.1zm-17.8,-4.6l-10.3,-2.6l1.3,-5.1l10.3,2.6l-1.3,5.1zm-20.6,-5.2l-10.3,-2.6l1.3,-5.1l10.3,2.6l-1.3,5.1z" fill="#5ab5ff"/>
   </g>
   <g id="svg_98">
    <g id="svg_99">
     <path id="svg_100" d="m347.9,155.9c0.4,-0.6 0.1,-1.5 -0.5,-1.8c-0.6,-0.3 -1.4,-0.1 -1.8,0.5c-0.4,0.6 -0.1,1.5 0.5,1.8c0.6,0.4 1.4,0.2 1.8,-0.5z" fill="#54636A"/>
    </g>
    <g id="svg_101">
     <path id="svg_102" d="m350.5,153.1l-3.6,-1.9c0,0 -4.3,-3 -5.3,-1.7c-1,1.3 -1.4,1.1 -1.7,2.1c-0.5,1.8 -1,2.3 -1,2.3l-1.4,-1c0,0 1.7,-1.5 0.6,-2.6c-0.8,-0.8 -1.5,-0.8 -2,-0.5c1.7,-2.5 3.9,-8.2 8.6,-5.6c4.7,2.6 7.9,3.4 9.4,4.6c1,0.8 0.4,5.2 -3.6,4.3z" fill="#54636A"/>
    </g>
    <g id="svg_103">
     <path id="svg_104" d="m319.2,167.2l25.5,13.8c1.3,-2.3 1.6,-5.1 0.8,-7.7c-0.8,-2.6 -2.5,-4.7 -4.9,-6l-7.8,-4.2c-2.3,-1.3 -5.1,-1.6 -7.7,-0.8c-2.5,0.8 -4.6,2.5 -5.9,4.9z" fill="#54636A"/>
    </g>
   </g>
   <g id="icon_2_">
    <g id="svg_105">
     <path id="svg_106" d="m124.4,169.1c2.2,-1.4 5.1,-0.8 6.5,1.3c1.4,2.2 0.8,5.1 -1.3,6.5c-2.2,1.4 -5.1,0.8 -6.5,-1.3c-1.4,-2.2 -0.8,-5.1 1.3,-6.5l0,0zm-1.8,-2.8c-3.7,2.4 -4.7,7.4 -2.2,11.1s7.4,4.7 11.1,2.2c3.7,-2.4 4.7,-7.4 2.2,-11.1c-2.4,-3.6 -7.4,-4.6 -11.1,-2.2l0,0z" fill="#1A7C7B"/>
    </g>
    <g id="svg_107">
     <rect id="svg_108" height="2.6" width="1.2" fill="#1A7C7B" transform="matrix(0.8327,-0.5537,0.5537,0.8327,-70.034,93.8359) " y="161.5" x="119.7"/>
    </g>
    <g id="svg_109">
     <rect id="svg_110" height="2.6" width="1.2" fill="#1A7C7B" transform="matrix(0.1974,-0.9803,0.9803,0.1974,-74.8645,249.714) " y="169.3" x="114.5"/>
    </g>
    <g id="svg_111">
     <rect id="svg_112" height="2.6" width="1.2" fill="#1A7C7B" transform="matrix(-0.5534,-0.8329,0.8329,-0.5534,31.8592,376.5692) " y="178.4" x="116.3"/>
    </g>
    <g id="svg_113">
     <g id="svg_114">
      <rect id="svg_115" height="2.9" width="5.7" fill="#1A7C7B" transform="matrix(0.8328,-0.5535,0.5535,0.8328,-78.4928,104.0445) " y="180.6" x="130.2"/>
     </g>
     <g id="svg_116">
      <path id="svg_117" d="m135.2,181.9c-0.4,-0.7 -1.5,-0.7 -2.4,-0.1c-0.9,0.6 -1.2,1.6 -0.8,2.2c0.4,0.7 1.5,0.7 2.4,0.1c0.9,-0.5 1.3,-1.5 0.8,-2.2z" fill="#1A7C7B"/>
     </g>
     <g id="svg_118">
      <rect id="svg_119" height="2.6" width="1.2" fill="#1A7C7B" transform="matrix(-0.8329,0.5534,-0.5534,-0.8329,345.284,260.5649) " y="181.1" x="132.7"/>
     </g>
    </g>
    <g id="svg_120">
     <rect id="svg_121" height="2.6" width="1.2" fill="#1A7C7B" transform="matrix(0.5535,0.8329,-0.8329,0.5535,199.7139,-40.0434) " y="164.9" x="136.6"/>
    </g>
    <g id="svg_122">
     <rect id="svg_123" height="2.6" width="1.2" fill="#1A7C7B" transform="matrix(0.9803,0.1974,-0.1974,0.9803,34.3416,-22.3887) " y="159.7" x="128.9"/>
    </g>
   </g>
   <g id="svg_124">
    <polygon id="svg_125" points="368.9,274.7 369.5,273.9 376.2,266.2 382.9,269 384.5,269.7 396.1,252.8 396.7,251.9 399.1,253.7 398.6,245.7 391.2,247.8 393.6,249.9 382.7,264 382.5,264.4 382.1,264.2 375.5,261.4 368.8,269.2 " fill="#9EC10D"/>
   </g>
   <g id="icon_1_">
    <path id="svg_126" d="m118.3,303.6c0.7,-2.5 2.3,-4.4 4,-5c-0.5,-1.9 -1.5,-3.7 -2.9,-5.2c-1.4,1 -3.8,1.3 -6.3,0.5c-2.5,-0.7 -4.3,-2.3 -5,-3.9c-2,0.5 -3.8,1.4 -5.3,2.7c1.1,1.4 1.4,3.8 0.6,6.4c-0.8,2.7 -2.5,4.6 -4.3,5.1c0.5,2 1.4,3.9 2.8,5.4c1.3,-1.3 3.9,-1.6 6.7,-0.8c2.7,0.8 4.7,2.6 5.1,4.3c2,-0.5 3.8,-1.6 5.3,-3c-1.2,-1.3 -1.5,-3.9 -0.7,-6.5zm-9.1,3c-2.8,-0.8 -4.3,-3.7 -3.5,-6.5c0.8,-2.7 3.7,-4.3 6.5,-3.5c2.8,0.8 4.3,3.7 3.5,6.5c-0.8,2.7 -3.7,4.3 -6.5,3.5z" fill="#FFB900"/>
   </g>
   <g id="svg_127">
    <g id="svg_128">
     <path id="svg_129" d="m237.8,121.7c-8.6,0 -15.6,7 -15.6,15.6c0,8.6 7,15.6 15.6,15.6c8.6,0 15.6,-7 15.6,-15.6c0.1,-8.6 -6.9,-15.6 -15.6,-15.6zm0,27.4c-6.5,0 -11.7,-5.2 -11.7,-11.7c0,-6.5 5.2,-11.7 11.7,-11.7c6.5,0 11.7,5.2 11.7,11.7c0,6.4 -5.2,11.7 -11.7,11.7z" fill="#FFFFFF"/>
    </g>
   </g>
   <g id="svg_130">
    <g id="svg_131">
     <path id="svg_132" d="m237.8,129.1c-4.5,0 -8.2,3.7 -8.2,8.2c0,4.5 3.7,8.2 8.2,8.2c4.6,0 8.2,-3.7 8.2,-8.2c0.1,-4.5 -3.6,-8.2 -8.2,-8.2zm0,12.5c-2.3,0 -4.2,-1.9 -4.2,-4.2c0,-2.3 1.9,-4.2 4.2,-4.2c2.3,0 4.2,1.9 4.2,4.2c0,2.3 -1.9,4.2 -4.2,4.2z" fill="#FFFFFF"/>
    </g>
   </g>
   <g id="svg_133">
    <g id="svg_134">
     <path id="svg_135" d="m237.8,133.2c-2.3,0 -4.2,1.9 -4.2,4.2c0,2.3 1.9,4.2 4.2,4.2c2.3,0 4.2,-1.9 4.2,-4.2c0,-2.3 -1.9,-4.2 -4.2,-4.2z" fill="#FCC020"/>
    </g>
   </g>
   <g id="svg_136">
    <g id="svg_137">
     <g id="svg_138">
      <path id="svg_139" d="m237.8,125.7c-6.5,0 -11.7,5.2 -11.7,11.7c0,6.5 5.2,11.7 11.7,11.7c6.5,0 11.7,-5.2 11.7,-11.7c0,-6.5 -5.2,-11.7 -11.7,-11.7zm0,19.9c-4.5,0 -8.2,-3.7 -8.2,-8.2c0,-4.5 3.7,-8.2 8.2,-8.2c4.6,0 8.2,3.7 8.2,8.2c0.1,4.5 -3.6,8.2 -8.2,8.2z" fill="#FCC020"/>
     </g>
    </g>
   </g>
  </g>
 </g>
</svg>